<svg width="24" height="21" viewBox="0 0 24 21" fill="none" xmlns="http://www.w3.org/2000/svg">
<g clip-path="url(#clip0)">
<path d="M22.7723 15.3239C23.8401 17.1328 23.2058 19.4511 21.3662 20.4907C19.5267 21.5407 17.1691 20.917 16.1119 19.108L8.19349 5.67636C7.13629 3.86745 7.76004 1.54913 9.61014 0.509528C11.4602 -0.530075 13.8072 0.0832909 14.8644 1.8922L22.7723 15.3239Z" fill="#FF7161"/>
<path d="M3.80593 20.9998C5.90788 20.9998 7.61186 19.3242 7.61186 17.2572C7.61186 15.1903 5.90788 13.5146 3.80593 13.5146C1.70397 13.5146 0 15.1903 0 17.2572C0 19.3242 1.70397 20.9998 3.80593 20.9998Z" fill="#FF7161"/>
<path d="M91.3101 3.84668C87.1024 3.84668 83.6982 7.19421 83.6982 11.3318C83.6982 15.4695 87.1024 18.817 91.3101 18.817C95.5178 18.817 98.922 15.4695 98.922 11.3318C98.922 7.19421 95.5178 3.84668 91.3101 3.84668ZM91.3101 15.0744C89.2063 15.0744 87.5042 13.4006 87.5042 11.3318C87.5042 9.26302 89.2063 7.58925 91.3101 7.58925C93.4139 7.58925 95.116 9.26302 95.116 11.3318C95.116 13.4006 93.4139 15.0744 91.3101 15.0744Z" fill="#222222"/>
<path d="M74.1837 3.84668H70.3777V6.38331C68.9822 4.82391 66.9418 3.84668 64.6689 3.84668H58.96V18.817H62.7659V7.58925H64.6689C66.7727 7.58925 68.4748 9.26302 68.4748 11.3318V18.817H72.2807V11.3318C72.2807 9.96995 71.9107 8.69123 71.2552 7.58925H74.1837C76.2875 7.58925 77.9896 9.26302 77.9896 11.3318V18.817H81.7955V11.3318C81.7955 7.19421 78.3913 3.84668 74.1837 3.84668Z" fill="#222222"/>
<path d="M99.5781 16.8933L101.428 14.0863C103.088 15.2611 104.822 15.8849 106.249 15.8849C107.507 15.8849 108.078 15.4378 108.078 14.7621V14.7101C108.078 13.7849 106.598 13.473 104.906 12.974C102.771 12.3606 100.339 11.373 100.339 8.45169V8.39971C100.339 5.34328 102.855 3.62793 105.932 3.62793C107.877 3.62793 109.981 4.27248 111.641 5.36407L109.981 8.31654C108.469 7.44328 106.957 6.91308 105.837 6.91308C104.78 6.91308 104.24 7.36011 104.24 7.95268V8.00466C104.24 8.84674 105.699 9.24179 107.349 9.80318C109.484 10.5101 111.969 11.5185 111.969 14.2631V14.3151C111.969 17.6522 109.431 19.17 106.112 19.17C104.008 19.17 101.608 18.4631 99.5781 16.8933Z" fill="#222222"/>
<path d="M42.5104 5.2808C41.2523 4.37635 39.7088 3.84615 38.0279 3.84615C33.8202 3.84615 30.416 7.19367 30.416 11.3313C30.416 15.4689 33.8202 18.8164 38.0279 18.8164C39.4128 18.8164 40.7132 18.4526 41.8338 17.808V18.8164H45.6397V3.74219L42.5104 5.2808ZM38.0279 15.0739C35.924 15.0739 34.2219 13.4001 34.2219 11.3313C34.2219 9.26248 35.924 7.58872 38.0279 7.58872C40.1317 7.58872 41.8338 9.26248 41.8338 11.3313C41.8338 13.4001 40.1317 15.0739 38.0279 15.0739Z" fill="#222222"/>
<path d="M52.3313 7.6928H56.1372V3.84626H52.3313V0.519531L48.5254 2.39082V11.4354C48.5783 15.521 51.9613 18.8166 56.1372 18.8166V15.074C54.0334 15.074 52.3313 13.4002 52.3313 11.3314V7.6928Z" fill="#222222"/>
</g>
<defs>
<clipPath id="clip0">
<rect width="24" height="21" fill="white"/>
</clipPath>
</defs>
</svg>
